<svg width="800" height="500" viewBox="0 0 800 500" xmlns="http://www.w3.org/2000/svg">
  <defs>
    <linearGradient id="grad1" x1="0%" y1="0%" x2="100%" y2="100%">
      <stop offset="0%" style="stop-color:#f3f4f6;stop-opacity:1" />
      <stop offset="100%" style="stop-color:#e5e7eb;stop-opacity:1" />
    </linearGradient>
  </defs>
  <rect width="800" height="500" fill="url(#grad1)"/>
  
  <!-- Header -->
  <rect x="0" y="0" width="800" height="80" fill="#ffffff" stroke="#e5e7eb" stroke-width="1"/>
  <rect x="40" y="30" width="120" height="20" rx="4" fill="#d1d5db"/>
  <rect x="680" y="25" width="80" height="30" rx="6" fill="#3b82f6"/>
  
  <!-- Sidebar -->
  <rect x="0" y="80" width="200" height="420" fill="#f9fafb" stroke="#e5e7eb" stroke-width="1"/>
  <rect x="20" y="110" width="160" height="12" rx="2" fill="#d1d5db"/>
  <rect x="20" y="140" width="120" height="12" rx="2" fill="#e5e7eb"/>
  <rect x="20" y="170" width="140" height="12" rx="2" fill="#e5e7eb"/>
  <rect x="20" y="200" width="100" height="12" rx="2" fill="#e5e7eb"/>
  
  <!-- Main content -->
  <rect x="240" y="120" width="520" height="200" rx="8" fill="#ffffff" stroke="#e5e7eb" stroke-width="1"/>
  <rect x="260" y="140" width="200" height="16" rx="4" fill="#374151"/>
  <rect x="260" y="170" width="480" height="8" rx="2" fill="#d1d5db"/>
  <rect x="260" y="190" width="380" height="8" rx="2" fill="#e5e7eb"/>
  <rect x="260" y="210" width="420" height="8" rx="2" fill="#e5e7eb"/>
  
  <!-- Cards -->
  <rect x="240" y="360" width="150" height="100" rx="6" fill="#ffffff" stroke="#e5e7eb" stroke-width="1"/>
  <rect x="250" y="370" width="130" height="8" rx="2" fill="#d1d5db"/>
  <rect x="250" y="390" width="100" height="6" rx="2" fill="#e5e7eb"/>
  <rect x="250" y="405" width="80" height="6" rx="2" fill="#e5e7eb"/>
  
  <rect x="410" y="360" width="150" height="100" rx="6" fill="#ffffff" stroke="#e5e7eb" stroke-width="1"/>
  <rect x="420" y="370" width="130" height="8" rx="2" fill="#d1d5db"/>
  <rect x="420" y="390" width="100" height="6" rx="2" fill="#e5e7eb"/>
  <rect x="420" y="405" width="80" height="6" rx="2" fill="#e5e7eb"/>
  
  <rect x="580" y="360" width="150" height="100" rx="6" fill="#ffffff" stroke="#e5e7eb" stroke-width="1"/>
  <rect x="590" y="370" width="130" height="8" rx="2" fill="#d1d5db"/>
  <rect x="590" y="390" width="100" height="6" rx="2" fill="#e5e7eb"/>
  <rect x="590" y="405" width="80" height="6" rx="2" fill="#e5e7eb"/>
  
  <!-- Template Preview Label -->
  <text x="400" y="250" text-anchor="middle" fill="#6b7280" font-family="system-ui, sans-serif" font-size="16" font-weight="500">Template Screenshot</text>
  <text x="400" y="275" text-anchor="middle" fill="#9ca3af" font-family="system-ui, sans-serif" font-size="12">Click for full-size view</text>
</svg> 